<svg width="172" height="149" viewBox="0 0 172 149" fill="none" xmlns="http://www.w3.org/2000/svg">
<path opacity="0.5" d="M169.768 79.4002C165.568 90.7002 148.468 102 148.468 111.6C148.468 116.2 143.568 126.6 134.168 135.3C127.268 141.6 117.968 147 106.468 148.4C100.768 149.1 94.5683 148.9 87.7683 147.3C48.4683 138.2 43.8683 121.1 20.0683 121.1C4.96828 121.1 12.0683 98.8002 13.0683 91.5002C14.2683 83.6002 15.2683 75.4002 13.6683 67.4002C11.7683 58.1002 1.06828 52.3002 0.0682794 43.4002C-0.631721 37.4002 4.16828 32.0002 9.06828 27.8002C20.9683 17.6002 36.3683 9.90021 53.0683 5.40021C82.7683 -2.6998 116.568 -0.499794 141.568 16.2002C171.168 36.2002 173.968 68.0002 169.768 79.4002Z" fill="#E9E9E9"/>
<g opacity="0.5">
<path opacity="0.5" d="M130.768 113.8C153.868 90.7001 153.868 53.2001 130.768 30.1001C107.668 7.00015 70.1683 7.00015 47.0683 30.1001C23.9683 53.2001 23.9683 90.7001 47.0683 113.8C70.1683 136.9 107.668 136.9 130.768 113.8Z" stroke="#403D56" stroke-width="0.4362" stroke-linecap="round" stroke-linejoin="round" stroke-dasharray="4.09 4.09"/>
</g>
<path d="M13.5683 65.6002V81.7002C13.5683 82.7002 14.3683 83.6002 15.4683 83.6002H44.1683C45.1683 83.6002 46.0683 82.8002 46.0683 81.7002V65.6002C46.0683 64.6002 45.2683 63.7002 44.1683 63.7002H15.4683C14.3683 63.7002 13.5683 64.5002 13.5683 65.6002Z" fill="#EB535A"/>
<path d="M45.9683 67.9001H13.5683V72.7001H45.9683V67.9001Z" fill="#26438A"/>
<path d="M13.5683 72.7002V81.5002C13.5683 82.5002 14.3683 83.4002 15.4683 83.4002H21.1683L24.4683 72.7002H13.5683ZM15.4683 63.7002C14.4683 63.7002 13.5683 64.5002 13.5683 65.6002V68.0002H25.9683L27.2683 63.8002L15.4683 63.7002Z" fill="#F1606A"/>
<path d="M13.5683 67.9001H25.9683L24.4683 72.7001H13.5683V67.9001Z" fill="#204D9F"/>
<path d="M66.0683 46.8002C66.0683 46.8002 54.7683 42.7002 52.5683 47.9002C50.3683 53.1002 60.1683 57.4002 65.6683 58.8002L66.0683 46.8002Z" fill="#E0A67A"/>
<path d="M134.168 135.3C127.268 141.6 117.968 147 106.468 148.4C103.568 142.3 99.1683 134.6 95.2683 134C88.7683 132.9 75.9683 121.1 75.9683 121.1C73.0683 85.4003 102.368 59.0003 103.868 60.0003C105.368 61.0003 126.368 72.3003 128.068 83.0003C129.668 93.7003 128.168 120.1 128.968 123.8C129.368 125.4 131.768 130.4 134.168 135.3Z" fill="#E0A67A"/>
<path d="M108.368 121.1H69.5683C66.3683 121.1 63.8683 118.6 63.8683 115.4V28.4002C63.8683 25.2002 66.3683 22.7002 69.5683 22.7002H108.268C111.468 22.7002 113.968 25.2002 113.968 28.4002V115.4C113.968 118.6 111.368 121.1 108.368 121.1Z" fill="#4C495E"/>
<path d="M106.068 116.8H71.7683C68.5683 116.8 66.0683 114.3 66.0683 111.1V32.8002C66.0683 29.6002 68.5683 27.1002 71.7683 27.1002H106.068C109.168 27.1002 111.768 29.6002 111.768 32.8002V111C111.768 114.2 109.268 116.8 106.068 116.8Z" fill="white"/>
<path d="M70.1683 73.3002C70.1683 73.3002 69.8683 77.9002 66.6683 77.9002C63.4683 77.9002 59.6683 77.1002 57.8683 76.5002C56.0683 76.0002 53.3683 74.4002 54.3683 69.8002C55.3683 65.2002 59.0683 65.0002 62.6683 66.1002C66.4683 67.3002 71.0683 68.9002 70.1683 73.3002Z" fill="#E0A67A"/>
<path d="M69.1683 83.0002C69.1683 83.0002 69.5683 78.6002 62.0683 78.6002C56.9683 78.6002 54.7683 79.6002 54.7683 83.7002C54.7683 89.0002 58.6683 88.8002 61.3683 88.8002C64.1683 88.9002 69.1683 87.9002 69.1683 83.0002Z" fill="#E0A67A"/>
<path d="M68.5683 93.8002C68.5683 93.8002 68.7683 89.6002 63.5683 89.6002C58.3683 89.6002 55.8683 90.6002 56.5683 95.4002C56.9683 98.6002 59.2683 99.0002 61.0683 99.0002C62.7683 98.9002 68.5683 97.6002 68.5683 93.8002Z" fill="#E0A67A"/>
<path opacity="0.15" d="M99.4683 36.9001H78.3683V46.5001H99.4683V36.9001Z" fill="#079D49"/>
<g opacity="0.5">
<g opacity="0.5">
<path opacity="0.15" d="M81.8683 44.5002C82.0683 44.6002 82.1683 44.6002 82.3683 44.6002C82.5683 44.6002 82.7683 44.5002 83.0683 44.4002C83.6683 44.0002 84.3683 43.1002 84.3683 41.7002C84.3683 41.5002 84.2683 41.4002 84.0683 41.4002H83.4683C83.2683 41.4002 83.1683 41.5002 83.1683 41.7002C83.1683 41.9002 83.2683 42.0002 83.4683 42.0002H83.7683V42.1002C83.6683 42.8002 83.3683 43.4002 82.7683 43.9002C82.6683 44.0002 82.4683 44.0002 82.3683 44.0002C82.2683 43.9002 82.1683 43.9002 82.1683 43.6002V41.7002H82.4683C82.6683 41.7002 82.7683 41.6002 82.7683 41.4002C82.7683 41.2002 82.6683 41.1002 82.4683 41.1002H82.1683V39.3002C82.1683 39.1002 82.0683 39.0002 81.8683 39.0002H81.0683C80.8683 39.0002 80.7683 39.1002 80.7683 39.3002C80.7683 39.5002 80.8683 39.6002 81.0683 39.6002H81.5683V41.0002H80.7683C80.5683 41.0002 80.4683 41.1002 80.4683 41.3002C80.4683 41.5002 80.5683 41.6002 80.7683 41.6002H81.5683V43.5002C81.2683 43.9002 81.5683 44.3002 81.8683 44.5002Z" fill="#079D49"/>
<path opacity="0.5" d="M84.7683 41.8002C84.7683 41.7002 84.6683 41.6002 84.5683 41.6002H83.9683C83.8683 41.6002 83.7683 41.7002 83.7683 41.8002C83.7683 41.9002 83.8683 42.0002 83.9683 42.0002H84.3683V42.1002C84.2683 42.8002 83.9683 43.4002 83.3683 43.9002C83.1683 44.0002 82.9683 44.0002 82.8683 44.0002C82.7683 43.9002 82.6683 43.8002 82.6683 43.6002V41.7002H83.0683C83.1683 41.7002 83.2683 41.6002 83.2683 41.5002C83.2683 41.4002 83.1683 41.3002 83.0683 41.3002H82.6683V39.4002C82.6683 39.3002 82.5683 39.2002 82.4683 39.2002H81.6683C81.5683 39.2002 81.4683 39.3002 81.4683 39.4002C81.4683 39.5002 81.5683 39.6002 81.6683 39.6002H82.2683V41.2002H81.3683C81.2683 41.2002 81.1683 41.3002 81.1683 41.4002C81.1683 41.5002 81.2683 41.6002 81.3683 41.6002H82.2683V43.5002C82.2683 43.9002 82.4683 44.2002 82.7683 44.4002C83.1683 44.6002 83.4683 44.5002 83.7683 44.3002C84.0683 43.9002 84.7683 43.1002 84.7683 41.8002Z" fill="#079D49"/>
</g>
<g opacity="0.5">
<path opacity="0.5" d="M97.3683 40.2002H86.7683V41.0002H97.3683V40.2002Z" fill="#079C49"/>
</g>
<g opacity="0.5">
<path opacity="0.5" d="M97.3683 42.8003H86.7683V43.5003H97.3683V42.8003Z" fill="#079C49"/>
</g>
</g>
<path d="M88.6683 75.9001C93.8683 75.9001 98.1683 71.7001 98.1683 66.4001C98.1683 61.2001 93.9683 56.9001 88.6683 56.9001C83.3683 56.9001 79.1683 61.2001 79.1683 66.5001C79.1683 71.7001 83.3683 75.9001 88.6683 75.9001Z" fill="white"/>
<path d="M100.668 67.0002C100.668 73.6002 95.3683 78.9002 88.7683 78.9002C82.1683 78.9002 76.7683 73.6002 76.7683 67.0002C76.7683 60.4002 82.0683 55.1002 88.6683 55.1002C95.2683 55.1002 100.668 60.3002 100.668 67.0002ZM87.3683 73.3002L96.1683 64.5002C96.4683 64.2002 96.4683 63.7002 96.1683 63.4002L95.0683 62.3002C94.7683 62.0002 94.2683 62.0002 93.9683 62.3002L86.7683 69.5002L83.4683 66.0002C83.1683 65.7002 82.6683 65.7002 82.3683 66.0002L81.2683 67.1002C80.9683 67.4002 80.9683 67.9002 81.2683 68.2002L86.2683 73.2002C86.5683 73.6002 87.0683 73.6002 87.3683 73.3002Z" fill="#1C558A"/>
<path d="M86.3683 70.2002C86.3683 70.2002 87.7683 68.2002 91.9683 70.9002C96.1683 73.6002 95.4683 74.7002 97.5683 75.5002C99.6683 76.3002 101.768 77.2002 102.568 77.5002C103.368 77.8002 106.168 81.7002 106.868 82.8002C107.568 83.8002 110.468 89.0002 114.868 90.8002C119.268 92.6002 118.368 131.2 114.168 129.6C110.068 128 104.268 129.3 102.868 116.3C101.568 103.3 102.268 100.1 101.768 99.0002C101.268 97.8002 97.7683 93.4002 96.7683 91.2002C95.7683 89.0002 92.0683 87.7002 87.9683 80.4002C84.0683 72.8002 86.3683 70.2002 86.3683 70.2002Z" fill="#E0A67A"/>
<path d="M136.268 62.4001L144.468 72.8001L146.968 63.7001L136.268 62.4001Z" fill="#E30053"/>
<path d="M144.468 73.3002L146.168 80.6002L141.168 84.8002L144.468 73.3002Z" fill="#AA003B"/>
<path d="M147.368 63.8002L144.768 73.2002L155.068 74.7002L147.368 63.8002Z" fill="#F7006D"/>
<path d="M144.768 73.2002L146.268 79.3002L155.068 74.8002L144.768 73.2002Z" fill="#E30053"/>
<path d="M147.368 79.0002L155.168 75.0002L154.968 75.9002L147.368 79.0002Z" fill="#F7006D"/>
<path d="M155.368 74.5002L152.368 70.3002L157.468 69.6002L155.368 74.5002Z" fill="#E30053"/>
<path d="M157.668 69.5002L156.868 71.7002H159.868L157.668 69.5002Z" fill="#F7006D"/>
<path d="M140.868 68.6001L137.468 64.4001H136.268L140.868 68.6001Z" fill="#A6002F"/>
</svg>
